<?xml version="1.0" standalone="no"?>
<!DOCTYPE svg PUBLIC "-//W3C//DTD SVG 20010904//EN"
 "http://www.w3.org/TR/2001/REC-SVG-20010904/DTD/svg10.dtd">
<svg version="1.0" xmlns="http://www.w3.org/2000/svg"
 width="300.000000pt" height="234.000000pt" viewBox="0 0 300.000000 234.000000"
 preserveAspectRatio="xMidYMid meet">
<metadata>
Created by potrace 1.16, written by Peter Selinger 2001-2019
</metadata>
<g transform="translate(0.000000,234.000000) scale(0.100000,-0.100000)"
fill="#000000" stroke="none">
<path d="M1573 1819 c-23 -11 -52 -36 -64 -55 -11 -19 -23 -34 -26 -34 -3 0
-14 11 -25 25 -31 40 -71 55 -145 55 -82 0 -129 -26 -158 -86 -23 -49 -32
-124 -15 -124 10 0 10 -3 1 -14 -7 -8 -11 -27 -9 -43 l3 -28 364 -3 c260 -2
368 1 377 9 19 15 18 44 -2 63 -8 9 -11 16 -5 16 28 0 1 114 -40 172 -47 65
-172 89 -256 47z"/>
<path d="M140 960 l0 -190 85 0 c95 0 143 15 169 51 13 19 16 20 16 6 0 -46
68 -71 125 -45 20 9 28 9 34 0 4 -7 38 -10 96 -9 l90 2 3 80 c3 87 14 109 48
101 28 -7 56 19 52 48 -2 16 -11 22 -36 24 -18 2 -39 -2 -47 -8 -9 -8 -15 -8
-20 0 -3 5 -26 10 -51 10 l-44 0 -2 -112 c-1 -86 -3 -95 -5 -38 -4 103 -9 117
-43 135 -33 17 -122 20 -151 4 -22 -11 -43 -55 -34 -70 4 -5 19 1 35 12 32 24
78 28 91 8 15 -24 10 -29 -32 -35 -22 -4 -56 -17 -75 -30 -31 -22 -34 -22 -34
-5 0 10 -12 32 -27 48 -27 27 -27 30 -10 46 11 11 17 32 17 60 -1 77 -34 97
-159 97 l-91 0 0 -190z"/>
<path d="M1143 1144 c-7 -3 -9 -24 -6 -62 l5 -57 -51 3 c-45 4 -54 1 -80 -26
-50 -50 -53 -145 -7 -199 21 -25 31 -28 92 -29 38 -1 83 4 99 11 25 10 33 10
43 -1 15 -16 56 -18 82 -4 14 8 25 7 40 -2 17 -11 22 -10 37 6 13 13 15 20 6
23 -9 3 -13 31 -13 92 0 110 -12 131 -76 131 -50 0 -96 -32 -75 -53 8 -8 14
-8 23 1 24 24 78 8 78 -23 0 -7 -19 -17 -41 -24 -23 -7 -52 -23 -65 -36 l-24
-24 0 139 0 140 -27 -1 c-16 0 -33 -3 -40 -5z m-18 -170 c22 -22 17 -132 -6
-147 -42 -26 -89 19 -89 86 0 65 56 100 95 61z"/>
<path d="M1574 1137 c-2 -7 -3 -91 -2 -187 l3 -175 39 -3 c49 -4 56 6 56 84
l0 62 44 6 c25 4 55 17 70 31 l26 24 0 -92 c0 -59 4 -97 12 -105 16 -16 54
-15 70 1 10 11 16 11 38 0 14 -7 42 -13 64 -13 31 0 45 7 70 33 l31 33 23 -28
c28 -33 80 -45 133 -29 30 9 43 9 58 -1 16 -10 28 -10 50 -1 19 7 33 7 39 1 5
-5 22 -8 38 -6 29 3 29 3 34 90 6 89 17 115 44 105 13 -5 16 -23 16 -90 0 -94
9 -111 57 -105 20 2 29 9 31 24 3 22 3 22 27 -2 27 -27 67 -31 107 -10 23 12
27 12 32 0 6 -15 81 -20 89 -6 3 4 1 52 -3 107 -7 90 -10 101 -35 122 -21 19
-38 23 -91 23 -72 0 -104 -20 -104 -65 0 -27 17 -34 26 -11 8 22 62 38 85 25
28 -14 23 -38 -8 -45 -64 -14 -94 -27 -108 -47 -14 -20 -15 -18 -15 34 0 41
-5 63 -20 82 -20 25 -25 26 -115 26 -64 0 -95 -4 -95 -12 0 -8 -4 -7 -12 1
-15 15 -60 16 -75 1 -8 -8 -17 -8 -31 0 -11 6 -41 11 -66 11 -56 0 -101 -34
-117 -91 -11 -35 -14 -38 -28 -25 -9 7 -31 21 -48 30 -18 9 -33 21 -33 26 0
16 32 12 51 -6 37 -34 69 15 33 50 -21 21 -102 21 -133 0 -22 -16 -24 -16 -33
0 -10 19 -59 21 -76 4 -9 -9 -12 -3 -12 27 0 30 3 36 12 27 7 -7 24 -12 40
-12 36 0 55 32 39 67 -9 20 -17 24 -43 21 -21 -2 -36 -11 -43 -24 l-11 -22
-27 24 c-25 21 -38 24 -113 24 -60 0 -86 -4 -90 -13z m666 -177 c6 -11 20 -20
30 -20 17 0 20 -7 20 -54 0 -53 0 -54 -34 -60 -18 -4 -40 -4 -48 -1 -33 13
-50 95 -28 136 14 25 46 24 60 -1z"/>
</g>
</svg>
